<svg width="60" height="60" viewBox="0 0 91 93" fill="none" xmlns="http://www.w3.org/2000/svg">
<path d="M63.7751 66.7356H86.1624C86.2607 66.7356 86.3526 66.7946 86.3849 66.8885C86.5993 67.5047 86.9249 69.9822 80.78 74.0169C80.78 74.0169 79.7773 74.5774 77.2916 74.6634C75.5088 74.7254 70.992 74.6984 68.5772 74.6777C66.0464 74.657 63.6026 75.7397 62.0454 77.7093C61.9648 77.8096 61.8874 77.9147 61.8084 78.023C61.8084 78.023 57.5786 85.3886 51.2112 89.6972C51.2112 89.6972 46.4139 93.2574 41.3555 92.9851H38.4168C35.9843 92.9851 33.5873 92.4088 31.4369 91.2878C28.474 89.7434 24.4666 87.1815 22.2098 83.7518C22.2098 83.7518 18.7537 78.9305 16.0923 73.9325C15.4395 72.7065 14.6738 71.5426 13.8049 70.4551C12.0253 68.2212 9.07693 64.6864 7.55682 63.763C5.28875 62.3841 3.37048 61.3507 1.4506 60.9638C-0.467674 60.5769 0.0691194 59.6709 0.0691194 59.6709C0.0691194 59.6709 4.6778 51.5728 12.3525 52.4342C20.0272 53.2956 26.3301 61.2425 26.3301 61.2425L32.6104 68.8024C32.6104 68.8024 36.0117 73.3896 40.722 72.2272C45.4322 71.0649 44.7777 66.9936 44.7777 66.9936C44.7777 66.9936 44.4505 63.2455 41.7681 61.3077C39.0874 59.37 36.4711 57.5612 36.4711 57.5612C36.4711 57.5612 30.7147 54.2016 31.2386 49.0969C31.2386 49.0969 31.3692 43.9922 33.4632 37.273C35.5571 30.5538 40.1352 13.3657 40.1352 13.3657L43.5784 0.517998C43.6606 0.209105 43.9443 -0.0122149 44.2683 0.000522901C45.1179 0.035552 46.9878 0.912871 50.6019 5.82649C56.0536 13.2351 48.8577 26.5462 48.8577 26.5462L45.3258 36.2078C45.3258 36.2078 43.7557 43.3458 44.7584 44.9826C45.761 46.6194 45.9803 45.672 50.2537 40.4591C54.5271 35.2477 56.6646 32.6619 56.6646 32.6619L69.3993 17.2412L73.4519 12.2591C73.584 12.0967 73.8226 12.0744 73.9854 12.205C74.8043 12.8626 77.0224 15.1968 78.0783 21.7647C79.1115 28.1989 69.359 37.1361 65.2242 40.6008C63.9217 41.6915 62.7208 42.892 61.6311 44.1897L57.5109 49.0953C56.5501 50.2386 55.8231 51.5649 55.4636 53.0074C55.2557 53.8386 55.1606 54.7382 55.3588 55.5375C55.3588 55.5375 55.2718 57.4322 62.7724 52.4358L76.6839 44.7247L89.3751 37.8319C89.3751 37.8319 91.3949 36.7556 90.9307 41.9669C90.4648 47.1783 88.5465 50.8404 84.0555 53.2526C79.5629 55.6649 76.0746 56.8718 76.0746 56.8718C76.0746 56.8718 66.3494 60.3604 64.9969 62.6436C64.9969 62.6436 62.9675 64.5718 63.3221 66.3742C63.3592 66.586 63.5558 66.7356 63.7751 66.7356Z" fill="#000000"/>
</svg>
